STARTFONT 2.1
FONT -FontForge-Ubuntu-Book-R-Normal--46-440-75-75-P-242-ISO10646-1
SIZE 44 75 75
FONTBOUNDINGBOX 45 45 -3 -9
COMMENT "Generated by fontforge, http://fontforge.sourceforge.net"
COMMENT "Copyright 2011 Canonical Ltd.  Licensed under the Ubuntu Font Licence 1.0"
STARTPROPERTIES 39
FOUNDRY "FontForge"
FAMILY_NAME "Ubuntu"
WEIGHT_NAME "Book"
SLANT "R"
SETWIDTH_NAME "Normal"
ADD_STYLE_NAME ""
PIXEL_SIZE 46
POINT_SIZE 440
RESOLUTION_X 75
RESOLUTION_Y 75
SPACING "P"
AVERAGE_WIDTH 242
CHARSET_REGISTRY "ISO10646"
CHARSET_ENCODING "1"
FONTNAME_REGISTRY ""
CHARSET_COLLECTIONS "ISO10646-1"
FONT_NAME "Ubuntu"
FACE_NAME "Ubuntu"
COPYRIGHT "Copyright 2011 Canonical Ltd.  Licensed under the Ubuntu Font Licence 1.0"
FONT_VERSION "0.83"
FONT_ASCENT 37
FONT_DESCENT 9
UNDERLINE_POSITION -7
UNDERLINE_THICKNESS 4
X_HEIGHT 23
CAP_HEIGHT 31
RAW_ASCENT 800
RAW_DESCENT 200
RELATIVE_WEIGHT 40
RELATIVE_SETWIDTH 50
SUPERSCRIPT_X 0
SUPERSCRIPT_Y 21
SUPERSCRIPT_SIZE 29
SUBSCRIPT_X 0
SUBSCRIPT_Y 6
SUBSCRIPT_SIZE 29
FIGURE_WIDTH 26
AVG_LOWERCASE_WIDTH 236
AVG_UPPERCASE_WIDTH 293
ENDPROPERTIES
CHARS 95
STARTCHAR exclam
ENCODING 33
SWIDTH 276 0
DWIDTH 13 0
BBX 6 32 3 0
BITMAP
78
78
78
78
78
78
78
78
78
78
78
78
78
78
78
78
78
78
30
30
30
30
00
00
00
00
78
FC
FC
FC
FC
78
ENDCHAR
STARTCHAR quotedbl
ENCODING 34
SWIDTH 418 0
DWIDTH 19 0
BBX 12 12 3 24
BITMAP
F0F0
F0F0
F0F0
F0F0
F0F0
F0F0
F0F0
F0F0
F070
6070
6060
6060
ENDCHAR
STARTCHAR numbersign
ENCODING 35
SWIDTH 667 0
DWIDTH 31 0
BBX 27 32 2 0
BITMAP
00F00780
00F00780
00F00F80
01E00F00
01E00F00
01E00F00
01E00F00
01E00F00
FFFFFFE0
FFFFFFE0
FFFFFFE0
FFFFFFE0
03C01E00
07C03C00
07803C00
07803C00
07803C00
07803C00
07807C00
0F007800
FFFFFFE0
FFFFFFE0
FFFFFFE0
FFFFFFE0
1E00F000
1E00F000
1E00F000
1E00F000
1E00F000
3E01E000
3C01E000
3C01E000
ENDCHAR
STARTCHAR dollar
ENCODING 36
SWIDTH 564 0
DWIDTH 26 0
BBX 20 42 3 -6
BITMAP
00F000
00F000
00F000
00F000
00F000
03FE00
0FFFC0
1FFFC0
3FFFC0
3E0180
7C0000
780000
780000
780000
780000
7C0000
3E0000
3F8000
1FE000
0FF800
03FC00
00FF00
003F80
000FC0
0003E0
0001F0
0000F0
0000F0
0000F0
0000F0
4001F0
7807E0
FFFFE0
FFFFC0
7FFF80
0FFC00
00F000
00F000
00F000
00F000
00F000
00F000
ENDCHAR
STARTCHAR percent
ENCODING 37
SWIDTH 858 0
DWIDTH 39 0
BBX 35 32 2 0
BITMAP
07C000F800
1FF000F000
3FF801F000
7C7C03E000
783C03C000
F01E07C000
F01E078000
F01E0F8000
F01E0F0000
F01E1F0000
F01E3E0000
F01E3C0000
783C7C0000
7C7C780000
3FF8F80000
1FF0F07C00
07C1E1FF00
0003E3FF80
0003C7C7C0
0007C783C0
00078F01E0
000F8F01E0
001F0F01E0
001E0F01E0
003E0F01E0
003C0F01E0
007C0F01E0
00780783C0
00F807C7C0
01F003FF80
01E001FF00
03E0007C00
ENDCHAR
STARTCHAR ampersand
ENCODING 38
SWIDTH 666 0
DWIDTH 31 0
BBX 28 32 2 0
BITMAP
00FE0000
03FF8000
07FFC000
0FFFE000
0F83F000
1F00F000
1E00F000
1E00F000
1E01F000
1E03E000
0F07E000
0F9FC000
07FF8000
07FE0000
03FC0000
0FF80000
1FFC01C0
3FFC03C0
7E3E03C0
7C1F0380
F80F8780
F007CF80
F003FF00
F001FF00
F000FE00
F8007C00
7800FE00
7E03FF00
3FFFFF80
1FFFC7C0
0FFF83E0
03FC01F0
ENDCHAR
STARTCHAR quotesingle
ENCODING 39
SWIDTH 241 0
DWIDTH 11 0
BBX 4 12 3 24
BITMAP
F0
F0
F0
F0
F0
F0
F0
F0
F0
60
60
60
ENDCHAR
STARTCHAR parenleft
ENCODING 40
SWIDTH 324 0
DWIDTH 15 0
BBX 11 45 4 -9
BITMAP
0080
01C0
03E0
07C0
0780
0F80
0F00
1E00
1E00
3E00
3C00
3C00
7800
7800
7800
7800
F800
F000
F000
F000
F000
F000
F000
F000
F000
F000
F000
F000
F000
7800
7800
7800
7800
3C00
3C00
3E00
1E00
1E00
0F00
0F80
0780
07C0
03E0
01C0
0080
ENDCHAR
STARTCHAR parenright
ENCODING 41
SWIDTH 324 0
DWIDTH 15 0
BBX 11 45 0 -9
BITMAP
2000
7000
F800
7800
3C00
3E00
1E00
1F00
0F00
0F80
0780
0780
03C0
03C0
03C0
03C0
03E0
01E0
01E0
01E0
01E0
01E0
01E0
01E0
01E0
01E0
01E0
01E0
03E0
03C0
03C0
03C0
03C0
0780
0780
0F80
0F00
1F00
1E00
3E00
3C00
7800
F800
7000
2000
ENDCHAR
STARTCHAR asterisk
ENCODING 42
SWIDTH 480 0
DWIDTH 22 0
BBX 19 18 2 14
BITMAP
01F000
01F000
01F000
01F000
60E0C0
78E3C0
FEEFE0
7FFFC0
1FFF00
00E000
01F000
03B800
07BC00
0F1E00
1F1F00
3E0F80
1C0700
040400
ENDCHAR
STARTCHAR plus
ENCODING 43
SWIDTH 564 0
DWIDTH 26 0
BBX 22 22 2 3
BITMAP
007800
007800
007800
007800
007800
007800
007800
007800
007800
FFFFFC
FFFFFC
FFFFFC
FFFFFC
007800
007800
007800
007800
007800
007800
007800
007800
007800
ENDCHAR
STARTCHAR comma
ENCODING 44
SWIDTH 246 0
DWIDTH 11 0
BBX 6 12 2 -7
BITMAP
3C
3C
3C
3C
3C
3C
38
78
78
70
F0
60
ENDCHAR
STARTCHAR hyphen
ENCODING 45
SWIDTH 299 0
DWIDTH 13 0
BBX 11 3 1 12
BITMAP
FFE0
FFE0
FFE0
ENDCHAR
STARTCHAR period
ENCODING 46
SWIDTH 246 0
DWIDTH 11 0
BBX 6 6 3 0
BITMAP
78
FC
FC
FC
FC
78
ENDCHAR
STARTCHAR slash
ENCODING 47
SWIDTH 384 0
DWIDTH 18 0
BBX 20 45 -1 -9
BITMAP
0000F0
0001E0
0001E0
0001E0
0003C0
0003C0
0003C0
000780
000780
000F80
000F00
000F00
001F00
001E00
001E00
003E00
003C00
003C00
007C00
007800
007800
00F000
00F000
00F000
01E000
01E000
03E000
03C000
03C000
07C000
078000
078000
0F8000
0F0000
0F0000
1F0000
1E0000
1E0000
3C0000
3C0000
3C0000
780000
780000
780000
F00000
ENDCHAR
STARTCHAR zero
ENCODING 48
SWIDTH 564 0
DWIDTH 26 0
BBX 22 32 2 0
BITMAP
00FC00
03FF00
0FFFC0
1FFFE0
1F87E0
3E01F0
3C00F0
7C00F8
780078
780078
F0007C
F0003C
F0003C
F0003C
F0003C
F0003C
F0003C
F0003C
F0003C
F0003C
F0003C
F0007C
780078
780078
7C00F8
3C00F0
3E01F0
1F03E0
1FFFE0
0FFFC0
03FF00
00FC00
ENDCHAR
STARTCHAR one
ENCODING 49
SWIDTH 564 0
DWIDTH 26 0
BBX 12 32 5 0
BITMAP
0070
00F0
03F0
07F0
1FF0
7FF0
FFF0
FCF0
78F0
60F0
00F0
00F0
00F0
00F0
00F0
00F0
00F0
00F0
00F0
00F0
00F0
00F0
00F0
00F0
00F0
00F0
00F0
00F0
00F0
00F0
00F0
00F0
ENDCHAR
STARTCHAR two
ENCODING 50
SWIDTH 564 0
DWIDTH 26 0
BBX 21 32 2 0
BITMAP
03FC00
1FFF00
3FFFC0
FFFFC0
FE07E0
7001E0
2001F0
0000F0
0000F0
0000F0
0000F0
0001E0
0001E0
0003C0
0007C0
000F80
001F00
003E00
007C00
00F800
01F000
03E000
07C000
0F8000
1F0000
1E0000
3C0000
380000
7FFFF8
7FFFF8
7FFFF8
7FFFF8
ENDCHAR
STARTCHAR three
ENCODING 51
SWIDTH 564 0
DWIDTH 26 0
BBX 20 32 3 0
BITMAP
03F800
1FFF00
7FFF80
7FFFC0
3C0FC0
3003E0
0001E0
0001E0
0001E0
0001E0
0003C0
0007C0
001F80
03FF00
03FC00
03FF00
03FFC0
001FC0
0003E0
0001E0
0000F0
0000F0
0000F0
0000F0
0000F0
0001F0
0003E0
700FE0
FFFFC0
FFFF80
FFFE00
0FF000
ENDCHAR
STARTCHAR four
ENCODING 52
SWIDTH 564 0
DWIDTH 26 0
BBX 22 32 2 0
BITMAP
0003C0
0007C0
000FC0
001FC0
003FC0
007FC0
00FFC0
00FBC0
01F3C0
03E3C0
03E3C0
07C3C0
0F83C0
0F83C0
1F03C0
1E03C0
3E03C0
7C03C0
7C03C0
F803C0
FFFFFC
FFFFFC
FFFFFC
FFFFFC
0003C0
0003C0
0003C0
0003C0
0003C0
0003C0
0003C0
0003C0
ENDCHAR
STARTCHAR five
ENCODING 53
SWIDTH 564 0
DWIDTH 26 0
BBX 20 32 3 0
BITMAP
1FFFE0
1FFFE0
1FFFE0
1FFFE0
1E0000
1E0000
1E0000
1C0000
3C0000
3C0000
3C0000
3FE000
3FFC00
3FFF00
3FFF80
007FC0
000FE0
0003E0
0001F0
0001F0
0000F0
0000F0
0000F0
0000F0
0000F0
0001E0
0003E0
700FC0
FFFFC0
FFFF80
FFFE00
0FF800
ENDCHAR
STARTCHAR six
ENCODING 54
SWIDTH 564 0
DWIDTH 26 0
BBX 21 32 3 0
BITMAP
0003E0
003FE0
00FFE0
01FFE0
07FC00
0FE000
0F8000
1F0000
3E0000
3C0000
780000
780000
79FC00
FFFF80
FFFFC0
FFFFE0
FC03F0
F001F0
F000F8
F00078
F00078
F00078
F00078
F80078
7800F8
7C00F0
7C01F0
3F07E0
1FFFE0
0FFFC0
07FF00
01FC00
ENDCHAR
STARTCHAR seven
ENCODING 55
SWIDTH 564 0
DWIDTH 26 0
BBX 20 32 3 0
BITMAP
FFFFF0
FFFFF0
FFFFF0
FFFFF0
0000E0
0001E0
0003C0
000780
000780
000F00
000F00
001E00
001E00
003C00
003C00
007800
007800
00F000
00F000
00F000
01E000
01E000
01E000
01C000
03C000
03C000
03C000
03C000
078000
078000
078000
078000
ENDCHAR
STARTCHAR eight
ENCODING 56
SWIDTH 564 0
DWIDTH 26 0
BBX 20 32 3 0
BITMAP
01F800
07FF00
1FFF80
1FFFC0
3E0FC0
7C03E0
7801E0
7801E0
7801E0
7801E0
7C01E0
3C03C0
3F07C0
1FCF80
0FFF00
07FE00
0FFF80
1E3FC0
3C0FE0
7803E0
7801F0
F000F0
F000F0
F000F0
F000F0
F801F0
7801E0
7E07E0
3FFFC0
1FFFC0
0FFF00
03FC00
ENDCHAR
STARTCHAR nine
ENCODING 57
SWIDTH 564 0
DWIDTH 26 0
BBX 21 32 2 0
BITMAP
01FC00
07FF00
1FFF80
3FFFC0
3F07E0
7C01E0
7801F0
F800F0
F000F0
F00078
F00078
F00078
F00078
F80078
7C0078
7E01F8
3FFFF8
1FFFF8
0FFFF8
03FCF0
0000F0
0000F0
0001E0
0003E0
0007C0
000FC0
003F80
01FF00
3FFE00
3FF800
3FE000
3E0000
ENDCHAR
STARTCHAR colon
ENCODING 58
SWIDTH 246 0
DWIDTH 11 0
BBX 6 24 3 0
BITMAP
78
FC
FC
FC
FC
78
00
00
00
00
00
00
00
00
00
00
00
00
78
FC
FC
FC
FC
78
ENDCHAR
STARTCHAR semicolon
ENCODING 59
SWIDTH 246 0
DWIDTH 11 0
BBX 7 31 2 -7
BITMAP
3C
7E
7E
7E
7E
3C
00
00
00
00
00
00
00
00
00
00
00
00
00
3C
3C
3C
3C
3C
3C
38
78
78
70
F0
60
ENDCHAR
STARTCHAR less
ENCODING 60
SWIDTH 564 0
DWIDTH 26 0
BBX 21 21 2 3
BITMAP
000010
0000F0
0003F8
000FF8
007FE0
01FF80
0FFE00
3FF000
FFC000
FE0000
F80000
FE0000
FFC000
3FF000
0FFE00
01FF80
007FE0
000FF8
0003F8
0000F0
000010
ENDCHAR
STARTCHAR equal
ENCODING 61
SWIDTH 564 0
DWIDTH 26 0
BBX 21 14 3 7
BITMAP
FFFFF8
FFFFF8
FFFFF8
FFFFF8
000000
000000
000000
000000
000000
000000
FFFFF8
FFFFF8
FFFFF8
FFFFF8
ENDCHAR
STARTCHAR greater
ENCODING 62
SWIDTH 564 0
DWIDTH 26 0
BBX 21 21 3 3
BITMAP
400000
780000
FE0000
FF8000
3FF000
0FFC00
03FF80
007FE0
001FF8
0003F8
0000F8
0003F8
001FF8
007FE0
03FF80
0FFC00
3FF000
FF8000
FE0000
780000
400000
ENDCHAR
STARTCHAR question
ENCODING 63
SWIDTH 404 0
DWIDTH 19 0
BBX 17 32 1 0
BITMAP
0FF000
7FFC00
FFFE00
7FFF00
703F00
000F80
000780
000780
000780
000780
000F00
001F00
003E00
007C00
00F800
01F000
03E000
03C000
07C000
078000
078000
078000
000000
000000
000000
000000
030000
078000
078000
078000
078000
030000
ENDCHAR
STARTCHAR at
ENCODING 64
SWIDTH 950 0
DWIDTH 44 0
BBX 38 41 3 -8
BITMAP
0001FF0000
001FFFE000
007FFFF800
00FFFFFE00
03FE00FF00
07F0003F80
07E0000FC0
0F800007E0
1F000003E0
1E000001F0
3E00FF80F0
3C03FFE078
7C0FFFE078
781FFFE078
781F81E03C
F83E01E03C
F03C01E03C
F07C01E03C
F07801E03C
F07801E03C
F07801E03C
F07801E03C
F07801E07C
F07C01E078
F03C01E078
F83E01E0F8
783F83F1F0
781FFFFFF0
7C0FFFFFE0
7C07FFFFC0
3E00FE3F00
3E00000000
1F00000000
0F80000000
0FE0000000
07F0000000
03FE006000
00FFFFE000
007FFFE000
001FFFE000
0001FF8000
ENDCHAR
STARTCHAR A
ENCODING 65
SWIDTH 663 0
DWIDTH 31 0
BBX 31 32 0 0
BITMAP
0007C000
0007C000
000FE000
000FE000
001FF000
001EF000
001EF000
003C7800
003C7800
007C7C00
00783C00
00783C00
00F01E00
00F01E00
01F01F00
01E00F00
03E00F80
03C00780
03C00780
078003C0
07FFFFC0
0FFFFFE0
0FFFFFE0
0FFFFFE0
1E0000F0
1E0000F0
3E0000F8
3C000078
7C00007C
7800003C
7800003C
F000001E
ENDCHAR
STARTCHAR B
ENCODING 66
SWIDTH 643 0
DWIDTH 30 0
BBX 24 32 4 0
BITMAP
7FFC00
FFFFC0
FFFFE0
FFFFF0
F003F8
F000FC
F0007C
F0003C
F0003C
F0003C
F0007C
F000F8
F003F8
FFFFE0
FFFFC0
FFFFF0
FFFFF8
F001FC
F0003E
F0001F
F0000F
F0000F
F0000F
F0000F
F0000F
F0001F
F0007E
F001FE
FFFFFC
FFFFF0
FFFFE0
3FFE00
ENDCHAR
STARTCHAR C
ENCODING 67
SWIDTH 620 0
DWIDTH 29 0
BBX 25 32 3 0
BITMAP
001FF000
00FFFF00
01FFFF80
07FFFF80
0FF00F00
1F800100
1F000000
3E000000
3C000000
78000000
78000000
F8000000
F0000000
F0000000
F0000000
F0000000
F0000000
F0000000
F0000000
F0000000
F8000000
78000000
78000000
7C000000
3E000000
3F000000
1F800100
0FE00F00
07FFFF80
03FFFF80
00FFFF00
001FF800
ENDCHAR
STARTCHAR D
ENCODING 68
SWIDTH 713 0
DWIDTH 33 0
BBX 26 32 4 0
BITMAP
7FFC0000
FFFF8000
FFFFE000
FFFFF800
F007FC00
F000FE00
F0003E00
F0001F00
F0000F80
F0000F80
F0000780
F00007C0
F00003C0
F00003C0
F00003C0
F00003C0
F00003C0
F00003C0
F00003C0
F00003C0
F00007C0
F0000780
F0000F80
F0000F80
F0001F00
F0003E00
F000FE00
F007FC00
FFFFF800
FFFFE000
FFFF8000
7FFC0000
ENDCHAR
STARTCHAR E
ENCODING 69
SWIDTH 571 0
DWIDTH 26 0
BBX 20 32 4 0
BITMAP
FFFFE0
FFFFE0
FFFFE0
FFFFE0
F00000
F00000
F00000
F00000
F00000
F00000
F00000
F00000
F00000
FFFF80
FFFF80
FFFF80
FFFF80
F00000
F00000
F00000
F00000
F00000
F00000
F00000
F00000
F00000
F00000
F00000
FFFFF0
FFFFF0
FFFFF0
FFFFF0
ENDCHAR
STARTCHAR F
ENCODING 70
SWIDTH 537 0
DWIDTH 25 0
BBX 19 32 4 0
BITMAP
FFFFE0
FFFFE0
FFFFE0
FFFFE0
F00000
F00000
F00000
F00000
F00000
F00000
F00000
F00000
F00000
FFFF80
FFFF80
FFFF80
FFFF80
F00000
F00000
F00000
F00000
F00000
F00000
F00000
F00000
F00000
F00000
F00000
F00000
F00000
F00000
F00000
ENDCHAR
STARTCHAR G
ENCODING 71
SWIDTH 672 0
DWIDTH 31 0
BBX 24 32 3 0
BITMAP
001FF0
00FFFE
03FFFF
07FFFF
0FE01E
1F8002
1F0000
3E0000
7C0000
780000
780000
F80000
F00000
F00000
F00000
F00000
F0000F
F0000F
F0000F
F0000F
F8000F
78000F
78000F
7C000F
3E000F
3E000F
1F800F
0FE00F
07FFFF
03FFFF
01FFFF
003FF0
ENDCHAR
STARTCHAR H
ENCODING 72
SWIDTH 705 0
DWIDTH 32 0
BBX 24 32 4 0
BITMAP
F0000F
F0000F
F0000F
F0000F
F0000F
F0000F
F0000F
F0000F
F0000F
F0000F
F0000F
F0000F
F0000F
FFFFFF
FFFFFF
FFFFFF
FFFFFF
F0000F
F0000F
F0000F
F0000F
F0000F
F0000F
F0000F
F0000F
F0000F
F0000F
F0000F
F0000F
F0000F
F0000F
F0000F
ENDCHAR
STARTCHAR I
ENCODING 73
SWIDTH 269 0
DWIDTH 12 0
BBX 4 32 4 0
BITMAP
F0
F0
F0
F0
F0
F0
F0
F0
F0
F0
F0
F0
F0
F0
F0
F0
F0
F0
F0
F0
F0
F0
F0
F0
F0
F0
F0
F0
F0
F0
F0
F0
ENDCHAR
STARTCHAR J
ENCODING 74
SWIDTH 500 0
DWIDTH 23 0
BBX 19 32 0 0
BITMAP
0001E0
0001E0
0001E0
0001E0
0001E0
0001E0
0001E0
0001E0
0001E0
0001E0
0001E0
0001E0
0001E0
0001E0
0001E0
0001E0
0001E0
0001E0
0001E0
0001E0
0001E0
0001E0
0001E0
0001E0
0003E0
0003E0
6007C0
780FC0
FFFF80
FFFF00
3FFE00
0FF000
ENDCHAR
STARTCHAR K
ENCODING 75
SWIDTH 629 0
DWIDTH 29 0
BBX 25 32 4 0
BITMAP
F0003E00
F0007C00
F000F800
F001F000
F003E000
F007C000
F00F8000
F01F0000
F03E0000
F07C0000
F0F80000
F1F00000
F3E00000
F7C00000
FF800000
FF800000
FFE00000
F7F00000
F3F80000
F0FC0000
F07E0000
F03F0000
F01F8000
F00FC000
F007E000
F003F000
F001F800
F000FC00
F0007E00
F0003E00
F0001F00
F0001F80
ENDCHAR
STARTCHAR L
ENCODING 76
SWIDTH 519 0
DWIDTH 24 0
BBX 19 32 4 0
BITMAP
F00000
F00000
F00000
F00000
F00000
F00000
F00000
F00000
F00000
F00000
F00000
F00000
F00000
F00000
F00000
F00000
F00000
F00000
F00000
F00000
F00000
F00000
F00000
F00000
F00000
F00000
F00000
F00000
FFFFE0
FFFFE0
FFFFE0
FFFFE0
ENDCHAR
STARTCHAR M
ENCODING 77
SWIDTH 871 0
DWIDTH 40 0
BBX 34 32 3 0
BITMAP
3C00000F00
3E00001F00
3E00001F00
3F00003F00
3F00003F00
7F80007F00
7F80007F00
7BC000F780
7BC000F780
79E001E780
79E001E780
78F003C780
78F003C780
7878078780
7878078780
7838070780
783C0F0780
783C0F0780
781E1E0780
781E1E0780
F80F3C0780
F00F3C0380
F0073803C0
F007F803C0
F003F003C0
F003F003C0
F003F003C0
F001E003C0
F0000003C0
F0000003C0
F0000003C0
F0000003C0
ENDCHAR
STARTCHAR N
ENCODING 78
SWIDTH 728 0
DWIDTH 33 0
BBX 25 32 4 0
BITMAP
F0000780
F8000780
FC000780
FE000780
FE000780
FF000780
FF800780
FFC00780
F7E00780
F3E00780
F1F00780
F0F80780
F07C0780
F07C0780
F03E0780
F01F0780
F00F0780
F00F8780
F007C780
F003C780
F001E780
F001F780
F000F780
F0007F80
F0007F80
F0003F80
F0001F80
F0000F80
F0000F80
F0000780
F0000780
F0000380
ENDCHAR
STARTCHAR O
ENCODING 79
SWIDTH 778 0
DWIDTH 36 0
BBX 30 32 3 0
BITMAP
001FE000
00FFFC00
03FFFF00
07FFFF80
0FE01FC0
1F8007E0
3F0003E0
3E0001F0
7C0000F8
78000078
78000078
F800007C
F000003C
F000003C
F000003C
F000003C
F000003C
F000003C
F000003C
F000003C
F800007C
78000078
78000078
7C0000F8
3E0001F0
3F0003E0
1F8007E0
0FE01FC0
07FFFF80
03FFFF00
00FFFC00
001FE000
ENDCHAR
STARTCHAR P
ENCODING 80
SWIDTH 608 0
DWIDTH 28 0
BBX 22 32 4 0
BITMAP
7FFC00
FFFF80
FFFFC0
FFFFF0
F007F0
F000F8
F00078
F0003C
F0003C
F0003C
F0003C
F0003C
F0007C
F00078
F000F8
F007F0
FFFFF0
FFFFE0
FFFF80
FFF800
F00000
F00000
F00000
F00000
F00000
F00000
F00000
F00000
F00000
F00000
F00000
F00000
ENDCHAR
STARTCHAR Q
ENCODING 81
SWIDTH 778 0
DWIDTH 36 0
BBX 30 41 3 -9
BITMAP
001FE000
00FFFC00
03FFFF00
07FFFF80
0FE01FC0
1F8007E0
3F0003E0
3E0001F0
7C0000F8
78000078
78000078
F800007C
F000003C
F000003C
F000003C
F000003C
F000003C
F000003C
F000003C
F000003C
F800007C
78000078
78000078
7C0000F8
3E0001F0
3F0003E0
1F8007E0
0FE01FC0
07FFFF80
03FFFF00
00FFFC00
001FE000
0003C000
0003E000
0001F000
0001FC00
0000FF80
00007FF0
00001FF0
000007E0
000000E0
ENDCHAR
STARTCHAR R
ENCODING 82
SWIDTH 629 0
DWIDTH 29 0
BBX 24 32 4 0
BITMAP
7FF800
FFFF80
FFFFC0
FFFFF0
F007F0
F000F8
F00078
F0007C
F0003C
F0003C
F0003C
F0003C
F0003C
F00078
F000F8
F007F0
FFFFF0
FFFFE0
FFFF80
FFFF00
F00F00
F00780
F007C0
F003E0
F001E0
F001F0
F000F8
F00078
F0007C
F0003E
F0003E
F0001F
ENDCHAR
STARTCHAR S
ENCODING 83
SWIDTH 532 0
DWIDTH 24 0
BBX 21 32 2 0
BITMAP
01FF00
07FFE0
1FFFF0
3FFFE0
3F01E0
7C0020
780000
780000
780000
780000
7C0000
3E0000
3F8000
1FE000
0FF800
03FE00
00FF80
001FC0
000FE0
0003F0
0000F0
0000F8
000078
000078
000078
000078
6000F8
7803F0
FFFFE0
FFFFE0
3FFF80
07FC00
ENDCHAR
STARTCHAR T
ENCODING 84
SWIDTH 565 0
DWIDTH 26 0
BBX 24 32 1 0
BITMAP
FFFFFF
FFFFFF
FFFFFF
FFFFFF
003C00
003C00
003C00
003C00
003C00
003C00
003C00
003C00
003C00
003C00
003C00
003C00
003C00
003C00
003C00
003C00
003C00
003C00
003C00
003C00
003C00
003C00
003C00
003C00
003C00
003C00
003C00
003C00
ENDCHAR
STARTCHAR U
ENCODING 85
SWIDTH 688 0
DWIDTH 32 0
BBX 24 32 4 0
BITMAP
F0000F
F0000F
F0000F
F0000F
F0000F
F0000F
F0000F
F0000F
F0000F
F0000F
F0000F
F0000F
F0000F
F0000F
F0000F
F0000F
F0000F
F0000F
F0000F
F0000F
F0000F
F0000F
F0000F
F8001F
78001E
7C003E
3E007C
3F81FC
1FFFF8
0FFFF0
07FFE0
00FF00
ENDCHAR
STARTCHAR V
ENCODING 86
SWIDTH 656 0
DWIDTH 30 0
BBX 30 32 0 0
BITMAP
F000003C
78000078
78000078
7C0000F8
3C0000F0
3C0000F0
3E0001F0
1E0001E0
1E0001E0
1F0003E0
0F0003C0
0F8007C0
07800780
07800780
07C00F80
03C00F00
03E01F00
01E01E00
01E01E00
01F03E00
00F03C00
00F87C00
00787800
007CF800
003CF000
003FF000
003FE000
001FE000
001FE000
000FC000
000FC000
00078000
ENDCHAR
STARTCHAR W
ENCODING 87
SWIDTH 929 0
DWIDTH 43 0
BBX 41 32 1 0
BITMAP
F00000000780
F00000000780
F80000000F80
780000000F00
78001E000F00
78003E000F00
78003E000F00
7C003E001F00
3C007F001E00
3C007F001E00
3C007F001E00
3E00F7803E00
3E00F7803E00
1E01F7C03C00
1E01E3C03C00
1E01E3C07C00
1F03E3E07C00
0F03C1E07800
0F03C1E07800
0F0781F0F800
0F8780F0F800
078F80F8F000
078F0078F000
07CF0079F000
07DF007DF000
03DE003DE000
03FE003FE000
03FC003FE000
01FC001FC000
01FC001FC000
01F8000FC000
00F8000F8000
ENDCHAR
STARTCHAR X
ENCODING 88
SWIDTH 631 0
DWIDTH 29 0
BBX 27 32 1 0
BITMAP
F80007C0
7C000F80
3C000F00
3E001F00
1F003E00
0F003C00
07807C00
07C0F800
03E0F000
01E1F000
01F3E000
00FBC000
007FC000
007F8000
003F0000
001F0000
003F0000
003F8000
007FC000
00FBE000
01F3E000
01E1F000
03E0F800
07C07800
07807C00
0F803E00
1F001F00
1E001F00
3E000F80
7C0007C0
7C0007C0
F80003E0
ENDCHAR
STARTCHAR Y
ENCODING 89
SWIDTH 598 0
DWIDTH 26 0
BBX 26 32 0 0
BITMAP
F80007C0
78000780
7C000F80
3C000F00
3E001F00
1E001E00
0F003C00
0F007C00
07807800
07C0F800
03C0F000
03E1F000
01F3E000
00F3C000
00FFC000
007F8000
007F8000
003F0000
001E0000
001E0000
001E0000
001E0000
001E0000
001E0000
001E0000
001E0000
001E0000
001E0000
001E0000
001E0000
001E0000
001E0000
ENDCHAR
STARTCHAR Z
ENCODING 90
SWIDTH 573 0
DWIDTH 26 0
BBX 22 32 2 0
BITMAP
7FFFFC
7FFFFC
7FFFFC
7FFFFC
00007C
0000F8
0001F0
0001E0
0003C0
0007C0
000F80
000F00
001E00
003E00
007C00
007800
00F800
01F000
01E000
03E000
07C000
078000
0F8000
1F0000
1E0000
3E0000
3C0000
7C0000
FFFFFC
FFFFFC
FFFFFC
FFFFFC
ENDCHAR
STARTCHAR bracketleft
ENCODING 91
SWIDTH 329 0
DWIDTH 15 0
BBX 11 45 4 -9
BITMAP
FFE0
FFE0
FFE0
FFE0
F000
F000
F000
F000
F000
F000
F000
F000
F000
F000
F000
F000
F000
F000
F000
F000
F000
F000
F000
F000
F000
F000
F000
F000
F000
F000
F000
F000
F000
F000
F000
F000
F000
F000
F000
F000
F000
FFE0
FFE0
FFE0
FFE0
ENDCHAR
STARTCHAR backslash
ENCODING 92
SWIDTH 384 0
DWIDTH 18 0
BBX 20 45 -1 -9
BITMAP
F00000
780000
780000
780000
3C0000
3C0000
3C0000
1E0000
1E0000
1F0000
0F0000
0F0000
0F8000
078000
078000
07C000
03C000
03C000
01E000
01E000
01E000
00F000
00F000
00F000
007800
007800
007800
003C00
003C00
003E00
001E00
001E00
001F00
000F00
000F00
000F80
000780
000780
0003C0
0003C0
0003C0
0001E0
0001E0
0001E0
0000F0
ENDCHAR
STARTCHAR bracketright
ENCODING 93
SWIDTH 329 0
DWIDTH 15 0
BBX 11 45 0 -9
BITMAP
FFE0
FFE0
FFE0
FFE0
01E0
01E0
01E0
01E0
01E0
01E0
01E0
01E0
01E0
01E0
01E0
01E0
01E0
01E0
01E0
01E0
01E0
01E0
01E0
01E0
01E0
01E0
01E0
01E0
01E0
01E0
01E0
01E0
01E0
01E0
01E0
01E0
01E0
01E0
01E0
01E0
01E0
FFE0
FFE0
FFE0
FFE0
ENDCHAR
STARTCHAR asciicircum
ENCODING 94
SWIDTH 564 0
DWIDTH 26 0
BBX 21 17 2 15
BITMAP
007000
00F800
00F800
01FC00
03DE00
03DE00
078F00
078700
0F0780
1E03C0
1E03C0
3C01E0
3C01E0
7800F0
F00078
F00078
200020
ENDCHAR
STARTCHAR underscore
ENCODING 95
SWIDTH 492 0
DWIDTH 23 0
BBX 23 4 0 -9
BITMAP
FFFFFE
FFFFFE
FFFFFE
FFFFFE
ENDCHAR
STARTCHAR grave
ENCODING 96
SWIDTH 376 0
DWIDTH 17 0
BBX 9 9 3 27
BITMAP
2000
7000
F800
7C00
3E00
1F00
0F80
0700
0200
ENDCHAR
STARTCHAR a
ENCODING 97
SWIDTH 522 0
DWIDTH 24 0
BBX 18 24 2 0
BITMAP
0FF800
3FFE00
3FFF00
3FFF80
300F80
0007C0
0003C0
0003C0
0003C0
03FFC0
1FFFC0
3FFFC0
7FFFC0
7C03C0
F803C0
F003C0
F003C0
F003C0
F803C0
FC03C0
7FFFC0
3FFFC0
1FFFC0
07FF00
ENDCHAR
STARTCHAR b
ENCODING 98
SWIDTH 589 0
DWIDTH 27 0
BBX 21 35 4 0
BITMAP
700000
F00000
F00000
F00000
F00000
F00000
F00000
F00000
F00000
F00000
F00000
F1FC00
FFFF00
FFFF80
FFFFC0
FE07E0
F801F0
F001F0
F000F0
F000F8
F00078
F00078
F00078
F00078
F00078
F00078
F000F8
F000F0
F001F0
F003E0
F00FE0
FFFFC0
FFFF80
FFFE00
1FF800
ENDCHAR
STARTCHAR c
ENCODING 99
SWIDTH 465 0
DWIDTH 21 0
BBX 18 24 2 0
BITMAP
00FF00
03FFC0
0FFFC0
1FFF80
3F8180
3E0000
7C0000
780000
F80000
F00000
F00000
F00000
F00000
F00000
F00000
F80000
780000
7C0000
7E0000
3F8080
1FFFC0
0FFFC0
07FFC0
00FF00
ENDCHAR
STARTCHAR d
ENCODING 100
SWIDTH 589 0
DWIDTH 27 0
BBX 21 35 2 0
BITMAP
000038
000078
000078
000078
000078
000078
000078
000078
000078
000078
000078
01FC78
07FFF8
0FFFF8
1FFFF8
3F03F8
7C00F8
7C0078
780078
F00078
F00078
F00078
F00078
F00078
F00078
F00078
F80078
780078
7C0078
3E0078
3F8078
1FFFF8
0FFFF8
03FFF8
00FFC0
ENDCHAR
STARTCHAR e
ENCODING 101
SWIDTH 559 0
DWIDTH 26 0
BBX 22 24 2 0
BITMAP
00FE00
03FFC0
0FFFE0
1FFFF0
3F01F0
3C00F8
780078
70003C
F0003C
FFFFFC
FFFFFC
FFFFFC
FFFFFC
F00000
F00000
F80000
780000
7C0000
7E0000
3F8070
1FFFF0
0FFFF0
03FFF0
00FF80
ENDCHAR
STARTCHAR f
ENCODING 102
SWIDTH 386 0
DWIDTH 18 0
BBX 14 35 4 0
BITMAP
07F8
1FFC
3FFC
7FF8
7C08
F800
F000
F000
F000
F000
F000
FFF8
FFF8
FFF8
FFF8
F000
F000
F000
F000
F000
F000
F000
F000
F000
F000
F000
F000
F000
F000
F000
F000
F000
F000
F000
F000
ENDCHAR
STARTCHAR g
ENCODING 103
SWIDTH 578 0
DWIDTH 27 0
BBX 21 33 2 -9
BITMAP
00FFC0
03FFF8
0FFFF8
1FFFF8
3F8078
7E0078
7C0078
780078
F80078
F00078
F00078
F00078
F00078
F00078
F00078
F80078
780078
7C0078
3F01F8
3FFFF8
1FFFF8
07FFF8
01FE78
000078
000078
000078
0000F8
0001F0
3807F0
7FFFE0
7FFFC0
7FFF80
0FFC00
ENDCHAR
STARTCHAR h
ENCODING 104
SWIDTH 571 0
DWIDTH 26 0
BBX 18 35 4 0
BITMAP
700000
F00000
F00000
F00000
F00000
F00000
F00000
F00000
F00000
F00000
F00000
F7F800
FFFE00
FFFF00
FFFF00
F81F80
F00780
F007C0
F003C0
F003C0
F003C0
F003C0
F003C0
F003C0
F003C0
F003C0
F003C0
F003C0
F003C0
F003C0
F003C0
F003C0
F003C0
F003C0
F003C0
ENDCHAR
STARTCHAR i
ENCODING 105
SWIDTH 253 0
DWIDTH 12 0
BBX 6 34 3 0
BITMAP
78
78
FC
78
78
00
00
00
00
00
78
78
78
78
78
78
78
78
78
78
78
78
78
78
78
78
78
78
78
78
78
78
78
78
ENDCHAR
STARTCHAR j
ENCODING 106
SWIDTH 253 0
DWIDTH 12 0
BBX 12 43 -3 -9
BITMAP
01E0
01E0
03F0
01E0
01E0
0000
0000
0000
0000
0000
01E0
01E0
01E0
01E0
01E0
01E0
01E0
01E0
01E0
01E0
01E0
01E0
01E0
01E0
01E0
01E0
01E0
01E0
01E0
01E0
01E0
01E0
01E0
01E0
01E0
01E0
01E0
03E0
07C0
FFC0
FF80
FF00
FC00
ENDCHAR
STARTCHAR k
ENCODING 107
SWIDTH 522 0
DWIDTH 24 0
BBX 19 35 4 0
BITMAP
700000
F00000
F00000
F00000
F00000
F00000
F00000
F00000
F00000
F00000
F00000
F00FC0
F00F80
F01F00
F03E00
F07C00
F0F800
F1F000
F3E000
F7C000
FFC000
FF8000
FF8000
FFC000
F7E000
F3F000
F1F800
F0FC00
F07E00
F03E00
F01F00
F00F80
F00FC0
F007C0
F003E0
ENDCHAR
STARTCHAR l
ENCODING 108
SWIDTH 273 0
DWIDTH 13 0
BBX 8 35 4 0
BITMAP
70
F0
F0
F0
F0
F0
F0
F0
F0
F0
F0
F0
F0
F0
F0
F0
F0
F0
F0
F0
F0
F0
F0
F0
F0
F0
F0
F0
F0
F0
FC
FF
7F
3F
0E
ENDCHAR
STARTCHAR m
ENCODING 109
SWIDTH 861 0
DWIDTH 40 0
BBX 32 24 4 0
BITMAP
1FF80FE0
FFFE7FF8
FFFFFFFC
FFFFFFFE
F01FF07E
F007801E
F007C01F
F003C00F
F003C00F
F003C00F
F003C00F
F003C00F
F003C00F
F003C00F
F003C00F
F003C00F
F003C00F
F003C00F
F003C00F
F003C00F
F003C00F
F003C00F
F003C00F
F003C00F
ENDCHAR
STARTCHAR n
ENCODING 110
SWIDTH 574 0
DWIDTH 26 0
BBX 18 24 4 0
BITMAP
1FF800
FFFE00
FFFF00
FFFF00
F01F80
F00780
F007C0
F003C0
F003C0
F003C0
F003C0
F003C0
F003C0
F003C0
F003C0
F003C0
F003C0
F003C0
F003C0
F003C0
F003C0
F003C0
F003C0
F003C0
ENDCHAR
STARTCHAR o
ENCODING 111
SWIDTH 590 0
DWIDTH 27 0
BBX 23 24 2 0
BITMAP
00FE00
03FF80
0FFFE0
1FFFF0
3F83F8
3E00F8
7C007C
78003C
F8003E
F0001E
F0001E
F0001E
F0001E
F0001E
F0001E
F8003E
78003C
7C007C
3E00F8
3F83F8
1FFFF0
0FFFE0
03FF80
00FE00
ENDCHAR
STARTCHAR p
ENCODING 112
SWIDTH 589 0
DWIDTH 27 0
BBX 21 33 4 -9
BITMAP
1FF800
FFFE00
FFFF80
FFFFC0
F00FE0
F003E0
F001F0
F000F0
F000F8
F00078
F00078
F00078
F00078
F00078
F00078
F000F8
F000F0
F001F0
F801F0
FE07E0
FFFFC0
FFFF80
FFFF00
F3FC00
F00000
F00000
F00000
F00000
F00000
F00000
F00000
F00000
F00000
ENDCHAR
STARTCHAR q
ENCODING 113
SWIDTH 589 0
DWIDTH 27 0
BBX 21 33 2 -9
BITMAP
00FFC0
03FFF8
0FFFF8
1FFFF8
3F8078
3E0078
7C0078
780078
F80078
F00078
F00078
F00078
F00078
F00078
F00078
F00078
780078
7C0078
7C00F8
3F03F8
1FFFF8
0FFFF8
07FFF8
01FC78
000078
000078
000078
000078
000078
000078
000078
000078
000078
ENDCHAR
STARTCHAR r
ENCODING 114
SWIDTH 386 0
DWIDTH 18 0
BBX 14 24 4 0
BITMAP
0FF8
FFFC
FFFC
FFF8
F008
F000
F000
F000
F000
F000
F000
F000
F000
F000
F000
F000
F000
F000
F000
F000
F000
F000
F000
F000
ENDCHAR
STARTCHAR s
ENCODING 115
SWIDTH 446 0
DWIDTH 21 0
BBX 17 24 2 0
BITMAP
07FC00
1FFF00
3FFF00
7FFF00
FC0600
F00000
F00000
F00000
F80000
7E0000
7FC000
3FF800
0FFE00
01FF00
003F00
000F80
000780
000780
000780
601F80
FFFF00
FFFE00
FFFC00
3FF000
ENDCHAR
STARTCHAR t
ENCODING 116
SWIDTH 402 0
DWIDTH 18 0
BBX 13 31 4 0
BITMAP
7000
F000
F000
F000
F000
F000
F000
FFF0
FFF0
FFF0
FFF0
F000
F000
F000
F000
F000
F000
F000
F000
F000
F000
F000
F000
F000
F000
F800
7C10
7FF8
3FF8
3FF8
0FE0
ENDCHAR
STARTCHAR u
ENCODING 117
SWIDTH 574 0
DWIDTH 26 0
BBX 18 24 4 0
BITMAP
F003C0
F003C0
F003C0
F003C0
F003C0
F003C0
F003C0
F003C0
F003C0
F003C0
F003C0
F003C0
F003C0
F003C0
F003C0
F003C0
F803C0
F803C0
7C03C0
7E03C0
3FFFC0
3FFFC0
0FFFC0
03FE00
ENDCHAR
STARTCHAR v
ENCODING 118
SWIDTH 502 0
DWIDTH 24 0
BBX 22 24 1 0
BITMAP
F0003C
F8007C
780078
780078
7C00F8
3C00F0
3C00F0
3E01F0
1E01E0
1E01E0
1F03E0
0F03C0
0F87C0
0F87C0
078780
07CF80
03CF00
03FF00
01FE00
01FE00
01FE00
00FC00
00FC00
007800
ENDCHAR
STARTCHAR w
ENCODING 119
SWIDTH 777 0
DWIDTH 36 0
BBX 34 24 1 0
BITMAP
F000F003C0
F800F007C0
7801F00780
7801F00780
7801F00780
7C01F80780
3C03F80F00
3C03F80F00
3E03B80F00
1E07BC1F00
1E07BC1E00
1F073C1E00
0F071E1E00
0F0F1E3E00
0F8F1E3C00
078E1E3C00
079E0F7C00
07DE0F7800
03DC0F7800
03FC07F800
01FC07F000
01F807F000
01F807F000
00F803E000
ENDCHAR
STARTCHAR x
ENCODING 120
SWIDTH 511 0
DWIDTH 24 0
BBX 22 24 1 0
BITMAP
F800F8
7C01F0
3C01E0
1E03E0
1F07C0
0F8780
078F80
07DF00
03FE00
01FE00
00FC00
00F800
00FC00
01FE00
03FE00
07DF00
07CF80
0F87C0
1F03C0
1F03E0
3E01F0
7C00F0
7C00F8
F8007C
ENDCHAR
STARTCHAR y
ENCODING 121
SWIDTH 497 0
DWIDTH 23 0
BBX 22 33 0 -9
BITMAP
78003C
3C007C
3C0078
3C0078
1E0078
1E00F0
1F00F0
0F00F0
0F01E0
0781E0
0781E0
0783C0
03C3C0
03C3C0
03E3C0
01E780
01E780
00F780
00F700
00FF00
007F00
007E00
007E00
003E00
003C00
003C00
007C00
007800
01F800
7FF000
FFE000
FFC000
7F0000
ENDCHAR
STARTCHAR z
ENCODING 122
SWIDTH 471 0
DWIDTH 22 0
BBX 18 24 2 0
BITMAP
7FFFC0
7FFFC0
7FFFC0
7FFFC0
0007C0
000F80
001F00
003E00
007C00
00F800
00F000
01F000
03E000
07C000
0F8000
0F8000
1F0000
3E0000
3E0000
7C0000
FFFFC0
FFFFC0
FFFFC0
FFFFC0
ENDCHAR
STARTCHAR braceleft
ENCODING 123
SWIDTH 333 0
DWIDTH 15 0
BBX 13 45 2 -9
BITMAP
0078
01F8
07F8
07F8
0FC0
0F80
0F00
0F00
0F00
0F00
0F00
0F00
0F00
0F00
0F00
0F00
0F00
0F00
0F00
1E00
3E00
FC00
F800
FC00
FE00
3E00
1F00
0F00
0F00
0F00
0F00
0F00
0F00
0F00
0F00
0F00
0F00
0F00
0F00
0F80
0FC0
07F8
07F8
03F8
0078
ENDCHAR
STARTCHAR bar
ENCODING 124
SWIDTH 279 0
DWIDTH 13 0
BBX 4 45 4 -9
BITMAP
F0
F0
F0
F0
F0
F0
F0
F0
F0
F0
F0
F0
F0
F0
F0
F0
F0
F0
F0
F0
F0
F0
F0
F0
F0
F0
F0
F0
F0
F0
F0
F0
F0
F0
F0
F0
F0
F0
F0
F0
F0
F0
F0
F0
F0
ENDCHAR
STARTCHAR braceright
ENCODING 125
SWIDTH 333 0
DWIDTH 15 0
BBX 13 45 0 -9
BITMAP
F000
FC00
FE00
FF00
1F80
0F80
0780
0780
0780
0780
0780
0780
0780
0780
0780
0780
0780
0780
0780
03C0
03E0
01F8
00F8
01F8
03F8
03E0
07C0
0780
0780
0780
0780
0780
0780
0780
0780
0780
0780
0780
0780
0F80
1F80
FF00
FF00
FE00
F000
ENDCHAR
STARTCHAR asciitilde
ENCODING 126
SWIDTH 564 0
DWIDTH 26 0
BBX 22 8 2 10
BITMAP
0F0030
3FC03C
3FF07C
7FF8F8
7C7FF8
F83FF0
F00FF0
3003C0
ENDCHAR
STARTCHAR degree
ENCODING 176
SWIDTH 332 0
DWIDTH 15 0
BBX 13 12 1 23
BITMAP
0F80
3FE0
7FF0
78F0
E038
E038
E038
E038
78F0
7FF0
3FE0
0F80
ENDCHAR
ENDFONT
